<?xml version="1.0" standalone="no"?>
<!DOCTYPE svg PUBLIC "-//W3C//DTD SVG 20010904//EN"
 "http://www.w3.org/TR/2001/REC-SVG-20010904/DTD/svg10.dtd">
<svg version="1.0" xmlns="http://www.w3.org/2000/svg"
 width="610.000000pt" height="610.000000pt" viewBox="0 0 610.000000 610.000000"
 preserveAspectRatio="xMidYMid meet">
<metadata>
Created by potrace 1.14, written by Peter Selinger 2001-2017
</metadata>
<g transform="translate(0.000000,610.000000) scale(0.100000,-0.100000)"
fill="#000000" stroke="none">
<path d="M284 5937 c-49 -18 -91 -59 -113 -108 -20 -43 -21 -63 -21 -1273 0
-893 3 -1239 11 -1267 16 -51 76 -112 126 -127 31 -9 339 -12 1271 -12 l1231
0 44 23 c54 27 91 70 106 122 9 30 11 361 9 1280 l-3 1240 -30 42 c-18 26 -49
53 -79 68 l-50 25 -1235 -1 c-920 0 -1244 -4 -1267 -12z"/>
<path d="M3313 5939 c-10 -4 -21 -5 -25 -2 -5 2 -8 -1 -8 -7 0 -6 -4 -9 -9 -6
-5 4 -29 -12 -52 -34 -24 -22 -39 -40 -35 -40 5 0 2 -7 -5 -16 -7 -9 -15 -23
-17 -33 -9 -38 -8 -2477 1 -2501 6 -14 11 -31 13 -37 1 -7 9 -20 18 -29 9 -8
16 -20 16 -25 0 -6 4 -8 9 -5 5 3 12 -1 15 -9 3 -8 9 -14 13 -13 4 1 22 -5 38
-13 26 -14 177 -15 1270 -14 l1240 1 50 26 c28 15 46 27 42 28 -4 0 5 12 20
26 15 14 21 22 13 18 -13 -7 -13 -6 0 10 8 10 16 25 18 35 6 25 9 2485 3 2496
-3 6 -6 17 -8 25 -1 8 -7 16 -13 18 -5 2 -8 7 -5 12 3 4 -7 15 -20 24 -14 10
-23 22 -19 28 4 6 3 8 -3 5 -6 -4 -13 -1 -16 7 -3 7 -23 17 -44 22 -45 9
-2474 13 -2500 3z"/>
<path d="M308 2942 c-16 -2 -28 -8 -28 -13 0 -6 -4 -7 -10 -4 -5 3 -10 1 -10
-4 0 -6 -4 -10 -8 -8 -5 1 -26 -15 -46 -35 -21 -21 -35 -38 -32 -38 4 0 0 -12
-7 -27 -11 -23 -13 -239 -11 -1263 1 -679 4 -1242 6 -1250 15 -57 82 -124 136
-137 21 -5 559 -9 1276 -8 986 0 1240 3 1244 13 2 6 7 10 12 7 4 -2 19 6 34
20 14 13 26 21 26 17 1 -7 24 29 25 38 1 3 8 19 16 35 14 26 15 174 14 1265
-1 679 -5 1247 -9 1263 -5 15 -12 27 -17 27 -5 0 -8 4 -7 9 2 5 -6 17 -17 26
-11 9 -14 13 -6 9 8 -4 12 -3 8 2 -3 5 -27 21 -54 34 l-48 25 -1230 0 c-676 0
-1242 -1 -1257 -3z"/>
<path d="M3290 2928 c-22 -9 -40 -15 -40 -12 0 3 -10 -6 -22 -20 -39 -42 -58
-66 -53 -66 3 0 0 -15 -7 -32 -10 -26 -13 -290 -12 -1248 1 -668 4 -1228 7
-1243 3 -16 21 -48 39 -71 31 -41 52 -55 108 -72 24 -7 2353 -10 2457 -3 29 2
53 7 53 11 0 4 8 9 19 13 23 7 71 50 71 65 0 5 5 10 12 10 6 0 8 3 5 6 -3 4
-1 16 5 28 8 15 11 359 10 1256 0 679 -1 1236 -2 1238 -2 1 -3 5 -4 10 -13 46
-61 106 -96 117 -11 3 -20 10 -20 14 0 3 -8 8 -17 9 -10 1 -570 3 -1245 4
-1139 3 -1230 2 -1268 -14z"/>
</g>
</svg>
